<?xml version="1.0" encoding="UTF-8"?>
<svg xmlns="http://www.w3.org/2000/svg" xmlns:xlink="http://www.w3.org/1999/xlink" width="20px" height="23px" viewBox="0 0 20 22" version="1.1">
<g id="surface1">
<path style=" stroke:none;fill-rule:nonzero;fill:#fff;fill-opacity:1;" d="M 3.570312 8.25 L 3.570312 6.1875 C 3.570312 2.769531 6.449219 0 10 0 C 13.550781 0 16.429688 2.769531 16.429688 6.1875 L 16.429688 8.25 L 17.144531 8.25 C 18.71875 8.25 20 9.484375 20 11 L 20 19.25 C 20 20.765625 18.71875 22 17.144531 22 L 2.855469 22 C 1.277344 22 0 20.765625 0 19.25 L 0 11 C 0 9.484375 1.277344 8.25 2.855469 8.25 Z M 6.429688 8.25 L 13.570312 8.25 L 13.570312 6.1875 C 13.570312 4.289062 11.972656 2.75 10 2.75 C 8.027344 2.75 6.429688 4.289062 6.429688 6.1875 Z M 6.429688 8.25 "/>
</g>
</svg>
